{"title":"Stand Up Guys  (2012)  DVDScr [rus/eng]","uid":8182566,"size":1883664584,"categoryP":"video","categoryS":"movies","magnet":"?xt=urn:btih:b72e5f787271e07b5235eb6d2b05dbe3891f7824&amp;dn=Stand+Up+Guys++%282012%29++DVDScr+%5Brus%2Feng%5D&amp;tr=udp%3A%2F%2Ftracker.openbittorrent.com%3A80&amp;tr=udp%3A%2F%2Fopen.demonii.com%3A1337&amp;tr=udp%3A%2F%2Ftracker.coppersurfer.tk%3A6969&amp;tr=udp%3A%2F%2Fexodus.desync.com%3A6969","seeders":1,"leechers":0,"uploader":"yfjfrj","files":-1,"time":1361655199,"description":"Plot: A pair of aging stickup men try to get the old gang back together for one last hurrah before one of the guys takes his last assignment - to kill his comrade. \n\nMediaInfo 0.7.62:\nGeneral\nComplete name                            : C:UsersIvanDesktopRealnue.Parni.2012.D.DVDScrRealnue.Parni.2012.D.DVDScr.avi\nFormat                                   : AVI\nFormat/Info                              : Audio Video Interleave\nFile size                                : 1.37 GiB\nDuration                                 : 1h 34mn\nOverall bit rate                         : 2 068 Kbps\nWriting application                      : VirtualDubMod 1.5.10.2 (build 2542/release)\nWriting library                          : VirtualDub build 32839/release\n\nVideo\nID                                       : 0\nFormat                                   : MPEG-4 Visual\nFormat profile                           : Advanced Simple@L5\nFormat settings, BVOP                    : 2\nFormat settings, QPel                    : No\nFormat settings, GMC                     : No warppoints\nFormat settings, Matrix                  : Default (H.263)\nMuxing mode                              : Packed bitstream\nCodec ID                                 : XVID\nCodec ID/Hint                            : XviD\nDuration                                 : 1h 34mn\nBit rate                                 : 1 928 Kbps\nWidth                                    : 720 pixels\nHeight                                   : 304 pixels\nDisplay aspect ratio                     : 2.35:1\nFrame rate                               : 29.970 fps\nColor space                              : YUV\nChroma subsampling                       : 4:2:0\nBit depth                                : 8 bits\nScan type                                : Progressive\nCompression mode                         : Lossy\nBits/(Pixel*Frame)                       : 0.294\nStream size                              : 1.28 GiB (93%)\nWriting library                          : XviD 64\n\nAudio\nID                                       : 1\nFormat                                   : MPEG Audio\nFormat version                           : Version 1\nFormat profile                           : Layer 3\nCodec ID                                 : 55\nCodec ID/Hint                            : MP3\nDuration                                 : 1h 34mn\nBit rate mode                            : Constant\nBit rate                                 : 128 Kbps\nChannel(s)                               : 2 channels\nSampling rate                            : 44.1 KHz\nCompression mode                         : Lossy\nStream size                              : 87.0 MiB (6%)\nAlignment                                : Split accross interleaves\nInterleave, duration                     : 33 ms (1.00 video frame)\nInterleave, preload duration             : 500 ms\n\n","torrent":{"xt":"urn:btih:b72e5f787271e07b5235eb6d2b05dbe3891f7824","amp;dn":"Stand+Up+Guys++%282012%29++DVDScr+%5Brus%2Feng%5D","amp;tr":["udp%3A%2F%2Ftracker.openbittorrent.com%3A80","udp%3A%2F%2Fopen.demonii.com%3A1337","udp%3A%2F%2Ftracker.coppersurfer.tk%3A6969","udp%3A%2F%2Fexodus.desync.com%3A6969"],"infoHash":"b72e5f787271e07b5235eb6d2b05dbe3891f7824","infoHashBuffer":{"type":"Buffer","data":[183,46,95,120,114,113,224,123,82,53,235,109,43,5,219,227,137,31,120,36]},"announce":[],"urlList":[]}}